<svg width="20" height="20" viewBox="0 0 20 20" fill="none" xmlns="http://www.w3.org/2000/svg">
<rect x="0.5" y="4.5" width="15" height="15" rx="2.5" stroke="black"/>
<rect x="8" y="4" width="10" height="10" fill="#97CCF6"/>
<path d="M3.68333 17.149C3.44956 17.1486 3.22672 17.0501 3.06916 16.8774C2.9087 16.7061 2.82896 16.4745 2.84999 16.2407L3.05416 13.9957L12.4858 4.56738L15.4333 7.51405L6.00416 16.9415L3.75916 17.1457C3.73333 17.1482 3.70749 17.149 3.68333 17.149ZM16.0217 6.92488L13.075 3.97821L14.8425 2.21071C14.9988 2.05423 15.2109 1.96631 15.4321 1.96631C15.6533 1.96631 15.8654 2.05423 16.0217 2.21071L17.7892 3.97821C17.9456 4.13452 18.0336 4.34662 18.0336 4.5678C18.0336 4.78897 17.9456 5.00107 17.7892 5.15738L16.0225 6.92405L16.0217 6.92488Z" fill="black"/>
</svg>
